<svg viewBox="0 0 460 140" xmlns="http://www.w3.org/2000/svg">
  <title>Mycelia</title>
  <g transform="translate(72 70)" fill="none" stroke="#2B241C" stroke-width="1.1" stroke-linecap="round">
    <circle r="44"/>
    <g stroke-width="0.8">
      <line x1="0" y1="0" x2="44" y2="0"/>
      <line x1="0" y1="0" x2="38.1" y2="22"/>
      <line x1="0" y1="0" x2="22" y2="38.1"/>
      <line x1="0" y1="0" x2="0" y2="44"/>
      <line x1="0" y1="0" x2="-22" y2="38.1"/>
      <line x1="0" y1="0" x2="-38.1" y2="22"/>
      <line x1="0" y1="0" x2="-44" y2="0"/>
      <line x1="0" y1="0" x2="-38.1" y2="-22"/>
      <line x1="0" y1="0" x2="-22" y2="-38.1"/>
      <line x1="0" y1="0" x2="0" y2="-44"/>
      <line x1="0" y1="0" x2="22" y2="-38.1"/>
      <line x1="0" y1="0" x2="38.1" y2="-22"/>
    </g>
    <circle r="2.8" fill="#2B241C" stroke="none"/>
    <g fill="#2B241C" stroke="none">
      <circle cx="44" cy="0" r="1.8"/><circle cx="38.1" cy="22" r="1.4"/>
      <circle cx="22" cy="38.1" r="1.6"/><circle cx="0" cy="44" r="1.4"/>
      <circle cx="-22" cy="38.1" r="1.6"/><circle cx="-38.1" cy="22" r="1.3"/>
      <circle cx="-44" cy="0" r="1.8"/><circle cx="-38.1" cy="-22" r="1.3"/>
      <circle cx="-22" cy="-38.1" r="1.6"/><circle cx="0" cy="-44" r="1.4"/>
      <circle cx="22" cy="-38.1" r="1.6"/><circle cx="38.1" cy="-22" r="1.4"/>
    </g>
  </g>
  <text x="150" y="83" font-family="Fraunces, 'Libre Caslon Text', Georgia, serif" font-size="46" font-weight="400" letter-spacing="2" fill="#2B241C" style="font-variation-settings:'opsz' 144;">mycelia</text>
  <line x1="150" y1="100" x2="420" y2="100" stroke="#2B241C" stroke-width="0.7"/>
</svg>
