<svg viewBox="0 0 200 200" xmlns="http://www.w3.org/2000/svg">
  <title>Mycelia — icon mark</title>
  <g transform="translate(100 100)" fill="none" stroke="#2B241C" stroke-width="1.4" stroke-linecap="round">
    <circle r="80"/>
    <g stroke-width="1">
      <line x1="0" y1="0" x2="80" y2="0"/>
      <line x1="0" y1="0" x2="69.28" y2="40"/>
      <line x1="0" y1="0" x2="40" y2="69.28"/>
      <line x1="0" y1="0" x2="0" y2="80"/>
      <line x1="0" y1="0" x2="-40" y2="69.28"/>
      <line x1="0" y1="0" x2="-69.28" y2="40"/>
      <line x1="0" y1="0" x2="-80" y2="0"/>
      <line x1="0" y1="0" x2="-69.28" y2="-40"/>
      <line x1="0" y1="0" x2="-40" y2="-69.28"/>
      <line x1="0" y1="0" x2="0" y2="-80"/>
      <line x1="0" y1="0" x2="40" y2="-69.28"/>
      <line x1="0" y1="0" x2="69.28" y2="-40"/>
    </g>
    <circle r="4.5" fill="#2B241C" stroke="none"/>
    <g fill="#2B241C" stroke="none">
      <circle cx="80" cy="0" r="3"/><circle cx="69.28" cy="40" r="2.4"/>
      <circle cx="40" cy="69.28" r="2.8"/><circle cx="0" cy="80" r="2.4"/>
      <circle cx="-40" cy="69.28" r="2.8"/><circle cx="-69.28" cy="40" r="2.2"/>
      <circle cx="-80" cy="0" r="3"/><circle cx="-69.28" cy="-40" r="2.2"/>
      <circle cx="-40" cy="-69.28" r="2.8"/><circle cx="0" cy="-80" r="2.4"/>
      <circle cx="40" cy="-69.28" r="2.8"/><circle cx="69.28" cy="-40" r="2.4"/>
    </g>
  </g>
</svg>
