<svg xmlns="http://www.w3.org/2000/svg" viewBox="0 0 16 16">
  <g transform="translate(8 8)" fill="black">
    <path d="M 0 -6.5 A 6.5 6.5 0 1 1 0 6.5 A 6.5 6.5 0 1 1 0 -6.5 Z M 0 -5.5 A 5.5 5.5 0 1 0 0 5.5 A 5.5 5.5 0 1 0 0 -5.5 Z"/>
    <circle r="0.7"/>
    <rect x="-0.1" y="-6" width="0.2" height="12"/>
    <rect x="-6" y="-0.1" width="12" height="0.2"/>
    <rect x="-0.1" y="-6" width="0.2" height="12" transform="rotate(30)"/>
    <rect x="-0.1" y="-6" width="0.2" height="12" transform="rotate(60)"/>
    <rect x="-0.1" y="-6" width="0.2" height="12" transform="rotate(120)"/>
    <rect x="-0.1" y="-6" width="0.2" height="12" transform="rotate(150)"/>
    <circle cx="6" cy="0" r="0.45"/><circle cx="-6" cy="0" r="0.45"/>
    <circle cx="0" cy="6" r="0.4"/><circle cx="0" cy="-6" r="0.4"/>
    <circle cx="5.2" cy="3" r="0.35"/><circle cx="-5.2" cy="3" r="0.35"/>
    <circle cx="5.2" cy="-3" r="0.35"/><circle cx="-5.2" cy="-3" r="0.35"/>
    <circle cx="3" cy="5.2" r="0.4"/><circle cx="-3" cy="5.2" r="0.4"/>
    <circle cx="3" cy="-5.2" r="0.4"/><circle cx="-3" cy="-5.2" r="0.4"/>
  </g>
</svg>
