<svg xmlns="http://www.w3.org/2000/svg" viewBox="0 0 1024 1024"><title>Mycelia — icon master</title><path fill="#2b241c" d="M0 0h1024v1024H0z"/><g fill="none" stroke="#f0ead9" stroke-linecap="round" stroke-width="7" transform="translate(512 512)"><circle r="300"/><path stroke-width="5" d="M0 0h300M0 0l259.81 150M0 0l150 259.81M0 0v300M0 0l-150 259.81M0 0l-259.81 150M0 0h-300M0 0l-259.81-150M0 0l-150-259.81M0 0v-300M0 0l150-259.81M0 0l259.81-150"/><circle r="17" fill="#f0ead9" stroke="none"/><g fill="#f0ead9" stroke="none"><circle cx="300" r="11"/><circle cx="259.81" cy="150" r="9"/><circle cx="150" cy="259.81" r="10.5"/><circle cy="300" r="9"/><circle cx="-150" cy="259.81" r="10.5"/><circle cx="-259.81" cy="150" r="8"/><circle cx="-300" r="11"/><circle cx="-259.81" cy="-150" r="8"/><circle cx="-150" cy="-259.81" r="10.5"/><circle cy="-300" r="9"/><circle cx="150" cy="-259.81" r="10.5"/><circle cx="259.81" cy="-150" r="9"/></g></g></svg>